<svg id="Capa_1" enable-background="new 0 0 510 510" height="512" viewBox="0 0 510 510" width="512" xmlns="http://www.w3.org/2000/svg"><g><path id="XMLID_5218_" d="m465 209.989c-19.555 0-36.228 12.542-42.42 30h-139.089c-1.949-9.562-5.731-18.46-10.948-26.329l128.068-128.068c6.113 2.911 12.75 4.376 19.389 4.376 11.523 0 23.047-4.386 31.819-13.158v-.001c17.546-17.545 17.546-46.094 0-63.64-17.545-17.544-46.094-17.544-63.639.001-13.828 13.826-16.749 34.484-8.782 51.209l-128.068 128.068c-7.869-5.218-16.768-9-26.33-10.949v-34.09c17.458-6.191 30-22.864 30-42.419 0-24.813-20.187-45-45-45s-45 20.186-45 45c0 19.555 12.541 36.228 30 42.419v34.09c-9.562 1.949-18.46 5.73-26.33 10.949l-83.069-83.069c7.966-16.724 5.045-37.382-8.782-51.209-17.545-17.545-46.093-17.544-63.639.001-17.544 17.545-17.544 46.094 0 63.639v.001c8.773 8.772 20.296 13.158 31.82 13.158 6.639 0 13.275-1.465 19.389-4.377l83.069 83.069c-5.217 7.869-8.999 16.768-10.948 26.329h-49.09c-6.192-17.458-22.865-30-42.42-30-24.813 0-45 20.186-45 45 0 24.813 20.187 45 45 45 19.555 0 36.227-12.541 42.42-30h49.089c1.949 9.561 5.731 18.46 10.948 26.33l-83.068 83.068c-16.723-7.967-37.381-5.046-51.209 8.782-17.544 17.545-17.544 46.094 0 63.639 8.772 8.773 20.296 13.159 31.82 13.159 11.523 0 23.047-4.386 31.82-13.159 13.826-13.826 16.748-34.484 8.781-51.207l83.069-83.07c7.869 5.219 16.768 9 26.329 10.949v94.089c-17.459 6.192-30 22.864-30 42.42 0 24.813 20.187 45 45 45s45-20.187 45-45c0-19.556-12.542-36.228-30-42.42v-94.089c9.561-1.949 18.46-5.731 26.329-10.949l53.069 53.069c-7.967 16.724-5.045 37.382 8.782 51.208 8.772 8.772 20.296 13.159 31.819 13.159s23.047-4.387 31.819-13.159c17.546-17.545 17.546-46.094 0-63.639-13.827-13.826-34.484-16.748-51.207-8.781l-53.069-53.07c5.217-7.869 9-16.768 10.948-26.329h139.091c6.192 17.459 22.865 30 42.42 30 24.814 0 45-20.187 45-45s-20.186-45-45-45z" fill="#ffffff"/></g></svg>