<svg xmlns="http://www.w3.org/2000/svg" width="27.021" height="25.068" viewBox="0 0 27.021 25.068">
  <path id="video_2_" data-name="video (2)" d="M25.534,19.313l1.046-.75a1.055,1.055,0,0,0,.3-1.378l-.538-.95a1.055,1.055,0,0,0-1.292-.467l-1.2.456c-.108-.081-.22-.155-.334-.225l-.007,0c-.048-.029-.1-.057-.146-.084l-.044-.025c-.043-.023-.087-.046-.131-.067l-.066-.032-.061-.029-.225-1.247a1.055,1.055,0,0,0-1.039-.869h-1a1.055,1.055,0,0,0-1.045.909l-.169,1.207a4.193,4.193,0,0,0-.871.53l-1.225-.382a1.055,1.055,0,0,0-1.264.546l-.45.925a1.056,1.056,0,0,0,.349,1.33l.987.682q-.005.107-.005.216c0,.065,0,.129,0,.194,0,.022,0,.045,0,.067s0,.045,0,.068l-1,.8a1.056,1.056,0,0,0-.258,1.346l.48.843a1.056,1.056,0,0,0,1.28.469l1.157-.424a4.21,4.21,0,0,0,.812.484l.225,1.247a1.055,1.055,0,0,0,1.039.869h.95a1.055,1.055,0,0,0,1.042-.889l.195-1.216.076-.036.054-.025c.045-.022.089-.045.133-.068l.115-.064.008,0a4.247,4.247,0,0,0,.586-.4l1.234.354a1.055,1.055,0,0,0,1.235-.542l.425-.849a1.055,1.055,0,0,0-.331-1.332l-1.028-.733c0-.052,0-.1,0-.155s0-.127,0-.191c0-.018,0-.036,0-.055s0-.031,0-.046Zm-2.678,1.7a1.759,1.759,0,0,1-.569.464l-.021.011c-.04.02-.081.039-.122.057l-.031.013-.1.038-.042.014c-.043.014-.086.027-.13.038a2.1,2.1,0,0,1-1.084-.013l-.09-.027-.051-.017-.078-.029-.077-.033-.067-.031-.059-.03-.054-.03q-.042-.024-.083-.05l-.063-.041-.053-.038-.053-.04-.047-.037c-.029-.024-.057-.049-.085-.074l-.04-.038-.057-.057a2.108,2.108,0,0,1-.532-.973c-.007-.029-.013-.058-.019-.087l-.006-.036c0-.028-.009-.057-.013-.086,0-.012,0-.025,0-.037,0-.03-.006-.059-.008-.089,0-.011,0-.022,0-.033,0-.04,0-.081,0-.121s0-.078,0-.117v-.015c0-.035.005-.07.009-.105v-.009c0-.037.01-.074.016-.11v-.007q.01-.055.022-.109a2.108,2.108,0,0,1,.55-1l.02-.021.065-.062.014-.012q.066-.06.138-.114l.011-.008a2.124,2.124,0,0,1,.24-.155l.02-.011.08-.041.028-.013q.064-.03.129-.055l.055-.021.063-.021.089-.026a2.1,2.1,0,0,1,1.121,0l.087.026.051.017.075.029.072.03.075.035.055.028.059.033.051.029c.032.019.063.039.094.06l.045.032.062.046.04.032q.046.038.09.078l.028.027c.023.022.046.044.068.067a2.107,2.107,0,0,1,.534.973c.007.029.013.058.019.087l.007.038c0,.028.009.056.013.084q0,.019,0,.038c0,.029.006.059.008.088,0,.011,0,.023,0,.034,0,.04,0,.081,0,.121a2.1,2.1,0,0,1-.011.219s0,.006,0,.01c0,.032-.008.065-.013.1,0,.013,0,.026-.007.039s-.007.043-.012.065a2.1,2.1,0,0,1-.359.81,1.06,1.06,0,0,0-.173.173Zm-4.491-9.275a2.047,2.047,0,0,0-1.029-1.788L12.806,7.324a2.062,2.062,0,0,0-3.1,1.788v5.259a2.057,2.057,0,0,0,3.1,1.788l4.531-2.629A2.046,2.046,0,0,0,18.366,11.742Zm-6.544,2.548v-5.1l4.391,2.548Zm15.2-9.567v7.864a1.055,1.055,0,1,1-2.111,0V4.722A2.113,2.113,0,0,0,22.8,2.611H4.222A2.113,2.113,0,0,0,2.111,4.722V18.55a2.113,2.113,0,0,0,2.111,2.111H12.56a1.056,1.056,0,0,1,0,2.111H4.222A4.227,4.227,0,0,1,0,18.55V4.722A4.227,4.227,0,0,1,4.222.5H22.8a4.227,4.227,0,0,1,4.222,4.222Zm0,0" transform="translate(0 -0.5)" fill="#ffffff"/>
</svg>
