<svg id="Output" xmlns="http://www.w3.org/2000/svg" width="42.567" height="42.567" viewBox="0 0 42.567 42.567">
  <g id="Group_2724" data-name="Group 2724">
    <g id="Group_2723" data-name="Group 2723">
      <path id="Path_3650" data-name="Path 3650" d="M37.837,0H4.73A4.728,4.728,0,0,0,0,4.73v9.459H4.73V4.73H37.837V37.837H4.73V28.378H0v9.459a4.728,4.728,0,0,0,4.73,4.73H37.837a4.728,4.728,0,0,0,4.73-4.73V4.73A4.728,4.728,0,0,0,37.837,0Z" fill="#fff"/>
      <path id="Path_3651" data-name="Path 3651" d="M16.755,105.635l3.346,3.346L31.925,97.157,20.1,85.333l-3.346,3.346,6.113,6.113H0v4.73H22.868Z" transform="translate(0 -75.874)" fill="#fff"/>
    </g>
  </g>
</svg>
