<svg xmlns="http://www.w3.org/2000/svg" width="20" height="15" viewBox="0 0 20 15">
  <g id="preview" transform="translate(-0.001 -2)">
    <path id="Path_3633" data-name="Path 3633" d="M.761,6.18a.76.76,0,0,0,.76-.76V4.28a.761.761,0,0,1,.76-.76h1.14a.76.76,0,0,0,0-1.52H2.281A2.283,2.283,0,0,0,0,4.28V5.42a.76.76,0,0,0,.76.76Z" fill="#fff"/>
    <path id="Path_3634" data-name="Path 3634" d="M20.4,2h-1.14a.76.76,0,1,0,0,1.52H20.4a.761.761,0,0,1,.76.76V5.42a.76.76,0,0,0,1.52,0V4.28A2.283,2.283,0,0,0,20.4,2Z" transform="translate(-2.68)" fill="#fff"/>
    <path id="Path_3635" data-name="Path 3635" d="M0,18.4a2.283,2.283,0,0,0,2.28,2.28h1.14a.76.76,0,0,0,0-1.52H2.281a.761.761,0,0,1-.76-.76V17.26a.76.76,0,1,0-1.52,0V18.4Z" transform="translate(0 -3.68)" fill="#fff"/>
    <path id="Path_3636" data-name="Path 3636" d="M21.921,16.5a.76.76,0,0,0-.76.76V18.4a.761.761,0,0,1-.76.76h-1.14a.76.76,0,1,0,0,1.52H20.4a2.283,2.283,0,0,0,2.28-2.28V17.26A.76.76,0,0,0,21.921,16.5Z" transform="translate(-2.68 -3.68)" fill="#fff"/>
    <path id="Path_3637" data-name="Path 3637" d="M10.959,14.956c3.349,0,6.2-1.8,6.942-4.379a.467.467,0,0,0,0-.268c-.739-2.58-3.593-4.379-6.942-4.379s-6.2,1.8-6.942,4.379a.467.467,0,0,0,0,.268C4.757,13.157,7.61,14.956,10.959,14.956Zm0-6.743a2.45,2.45,0,0,1,2.61,2.23,2.45,2.45,0,0,1-2.61,2.23,2.45,2.45,0,0,1-2.61-2.23A2.45,2.45,0,0,1,10.959,8.212Z" transform="translate(-0.959 -0.943)" fill="#fff"/>
  </g>
</svg>
