<svg xmlns="http://www.w3.org/2000/svg" width="512" height="520.733" viewBox="0 0 512 520.733">
  <path id="Path_3643" data-name="Path 3643" d="M400.753,528.442H656.416V398.781H400.753Zm299.106,0h42.028V219.928l-1.494-3.583-1.419-3.658-1.492-4.329-2.164-2.911-1.419-2.165-2.165-2.165-93.456-94.875-1.417-2.165-2.912-1.418-3.584-2.239L627.452,99l-4.33-2.165-3.656-.747-2.167-.672h-2.91V236.574l-.673,5.822-2.24,6.494-2.836,5.822-3.657,4.33-5.076,4.329-5.747,3.658-5.077.672-7.241.747H389.927l-6.569-.747-5.747-.672-5.823-3.658-4.329-4.329-4.329-4.33-2.913-5.822L358.8,242.4l-.746-5.822V95.418h-42.7V528.442h42.7V387.958l.746-6.494,1.416-5.822,2.913-5.822,4.329-4.329,4.329-4.329,5.823-3.658,5.747-1.418,6.569-.747H667.239l6.569.747,5.747,1.418,5.823,3.658,5.076,4.329,3.583,4.329,2.912,5.822,2.165,5.822.746,6.494ZM571.691,214.851V106.241l-.746-1.418-.746-2.165-2.164-4.4L565.2,96.089l-4.406-.672H496.374l-3.658.672-3.583,2.165-2.165,4.4-.746,3.583v108.61l.746,3.658,2.165,3.583L492.716,225l3.658.746h64.418L565.2,225l2.836-2.911,2.164-3.583.746-1.493Zm212.892,10.9v314.26l-.746,6.569-1.419,6.494-2.91,5.077-3.583,5.076-5.077,3.583-5.076,2.911-6.494,2.165-5.822.746H305.2l-7.239-.746-5.077-2.165-6.569-2.911-4.33-3.583-4.328-5.076-2.911-5.077-1.419-6.494-.746-6.569V84.517l.746-6.494,1.419-5.822,2.911-5.822,4.328-5,4.33-4.4,6.569-2.165,5.077-2.165L305.2,51.9H614.387l6.569.746,7.241,1.493,7.24,2.165,7.912,2.165,7.987,3.583,6.5,4.329,5.821,3.658,5.075,5.076,93.385,94.875,4.4,5.076,4.33,5.748,4.331,7.241,3.583,7.241L781,204.026l2.164,7.241,1.419,7.241Z" transform="translate(-272.583 -51.897)" fill="#ccc" fill-rule="evenodd"/>
</svg>
