<svg id="type_animation_noBorder_dark" xmlns="http://www.w3.org/2000/svg" width="40" height="40" viewBox="0 0 40 40">
  <rect id="Icon_Base" width="40" height="40" fill="none"/>
  <path id="icon" d="M9.718,13.288l2.569.8L.018,22.441Zm6.869,1.228-6.253-1.808,8.054-7.193L21.4,6.795a70.644,70.644,0,0,0-6.081,4.812c-1.1.7,6.508,2.121,4.923,3.25l-9.9,5.516ZM14.109,3.364,17.82,5.133,16.33,6.457s-1.019-.411-2.6-1.159C13.089,4.9,7.943,9.412,6.3,10.6Zm6.43,4.952L21.99,7.17s.712.275,2.28,1.014c.628.416,4.871-3.435,6.556-4.56l-6.341,6.559Zm-1.5-5.326a2.866,2.866,0,1,1,5.727,0,2.866,2.866,0,1,1-5.727,0Z" transform="translate(3.982 10)" fill="#56a6db"/>
</svg>
