<svg id="type_time_dark" xmlns="http://www.w3.org/2000/svg" width="40" height="40" viewBox="0 0 40 40">
  <rect id="Icon_Base" width="40" height="40" fill="none"/>
  <g id="bgr" fill="#1e2931" stroke="#56a6db" stroke-width="1.5">
    <path d="M9,0H40a0,0,0,0,1,0,0V31a9,9,0,0,1-9,9H0a0,0,0,0,1,0,0V9A9,9,0,0,1,9,0Z" stroke="none"/>
    <path d="M9,.75H38.5a.75.75,0,0,1,.75.75V31A8.25,8.25,0,0,1,31,39.25H1.5a.75.75,0,0,1-.75-.75V9A8.25,8.25,0,0,1,9,.75Z" fill="none"/>
  </g>
  <path id="clock" d="M247.29,122.957v6.8l-.034.131v.1l-.131.165-.162.1-.165.034h-4.839l-.162-.034-.165-.1-.128-.165v-.1l-.034-.131v-.947l.034-.2.128-.165.165-.1.162-.03h3.37v-5.361l.03-.229.1-.165.165-.1h1.341l.162.1.131.165Zm5.166,9.543.226-.489.229-.522.165-.492.162-.522.131-.522.1-.526.067-.556v-1.109l-.067-.556-.1-.526-.131-.522-.162-.522-.165-.489-.229-.526-.226-.458-.327-.489-.3-.425-.361-.425-.327-.394-.391-.391-.425-.327-.425-.327-.458-.263-.458-.293-.489-.2-.492-.2-.522-.165-.522-.1-.526-.1-.553-.067h-1.112l-.526.067-.522.1-.522.1-.522.165-.492.2-.458.2-.489.293-.492.263-.425.327-.391.327-.394.391-.357.394-.327.425-.327.425-.263.489-.293.458-.2.526-.2.489-.162.522-.1.522-.1.526-.067.556v1.109l.067.556.1.526.1.522.162.522.2.492.2.522.293.489.263.458.327.425.327.425.357.428.394.357.391.327.425.327.492.263.489.293.458.2.492.2.522.162.522.131.522.064.526.067h1.112l.553-.067.526-.064.522-.131.522-.162.492-.2.489-.2.458-.293.458-.263.425-.327.425-.327.391-.357.327-.428.361-.425.3-.425Zm2.874-10.069.394.654.293.721.293.718.2.721.162.718.131.785.064.751.034.819-.034.782-.064.785-.131.751-.162.751-.2.721-.293.718-.293.721-.394.687-.391.62-.425.62-.458.59-.522.556-.556.522-.556.458-.62.489-.657.394-.684.357-.687.361-.687.229-.718.263-.751.162-.751.1-.755.067-.782.03-.751-.03-.785-.067-.751-.1-.721-.162-.718-.263-.721-.229-.684-.361-.657-.357-.654-.394-.62-.489-.556-.458-.556-.522-.489-.556-.492-.59-.458-.62-.391-.62-.361-.687-.327-.721-.259-.718-.229-.721-.165-.751-.1-.751-.064-.785-.034-.782.034-.819.064-.751.1-.785.165-.718.229-.721.259-.718.327-.721.361-.654.391-.654.458-.62.492-.59.489-.556.556-.522.556-.458.62-.489.654-.394.657-.357.684-.361.721-.229.718-.229.721-.162.751-.131.785-.067.751-.03.782.03.755.067.751.131.751.162.718.229.687.229.687.361.684.357.657.394.62.489.556.458.556.522.522.556.458.59.425.62Z" transform="translate(-225.344 -108.317)" fill="#56a6db" fill-rule="evenodd"/>
</svg>
