<svg id="type_io_noBorder_dark" xmlns="http://www.w3.org/2000/svg" width="40" height="40" viewBox="0 0 40 40">
  <rect id="Icon_Base" width="40" height="40" fill="none"/>
  <rect id="corner_void" width="7" height="7" transform="translate(33)" fill="#1f2123"/>
  <path id="bgr" d="M9,0H33.156L40,6.781V31a9,9,0,0,1-9,9H0V9A9,9,0,0,1,9,0Z" fill="#debfad"/>
  <path id="corner_shadow" d="M1-1,7.818,5.818l-6.061.758Z" transform="translate(32.182 1)" fill="#ab6137"/>
  <path id="corner" d="M0,0,6.818,6.818H0Z" transform="translate(33.182)" fill="#e1e1e1"/>
  <path id="io" d="M4.313-.589a.3.3,0,0,1-.054.182.423.423,0,0,1-.175.128A1.232,1.232,0,0,1,3.746-.2a4.612,4.612,0,0,1-.553.027A4.471,4.471,0,0,1,2.654-.2,1.336,1.336,0,0,1,2.31-.279a.371.371,0,0,1-.175-.128.332.332,0,0,1-.047-.182V-12.723a.342.342,0,0,1,.047-.175.351.351,0,0,1,.175-.135,1.335,1.335,0,0,1,.344-.081,4.471,4.471,0,0,1,.539-.027,4.612,4.612,0,0,1,.553.027,1.232,1.232,0,0,1,.337.081.4.4,0,0,1,.175.135.31.31,0,0,1,.054.175Zm.256-16.232a1.465,1.465,0,0,1-.3,1.065,1.594,1.594,0,0,1-1.092.283,1.568,1.568,0,0,1-1.072-.276,1.438,1.438,0,0,1-.29-1.045,1.465,1.465,0,0,1,.3-1.065,1.594,1.594,0,0,1,1.092-.283,1.568,1.568,0,0,1,1.072.276A1.438,1.438,0,0,1,4.569-16.821ZM19.709-6.791a9.088,9.088,0,0,1-.391,2.73,6.024,6.024,0,0,1-1.166,2.15A5.284,5.284,0,0,1,16.21-.5a6.746,6.746,0,0,1-2.7.506A7,7,0,0,1,10.9-.441,4.766,4.766,0,0,1,9.045-1.735,5.485,5.485,0,0,1,7.939-3.8a9.569,9.569,0,0,1-.364-2.75,9.236,9.236,0,0,1,.384-2.73,5.943,5.943,0,0,1,1.159-2.15,5.23,5.23,0,0,1,1.935-1.4,6.814,6.814,0,0,1,2.71-.5,7,7,0,0,1,2.609.445,4.766,4.766,0,0,1,1.854,1.294,5.559,5.559,0,0,1,1.112,2.063A9.355,9.355,0,0,1,19.709-6.791ZM17.4-6.643A9.056,9.056,0,0,0,17.22-8.5a4.572,4.572,0,0,0-.605-1.537,3,3,0,0,0-1.143-1.045,3.786,3.786,0,0,0-1.8-.384,3.84,3.84,0,0,0-1.707.351,3.131,3.131,0,0,0-1.177.991A4.446,4.446,0,0,0,10.1-8.611,7.7,7.7,0,0,0,9.881-6.7a9.125,9.125,0,0,0,.184,1.874,4.416,4.416,0,0,0,.612,1.53,3.077,3.077,0,0,0,1.149,1.038,3.786,3.786,0,0,0,1.8.384,3.85,3.85,0,0,0,1.7-.351A3.141,3.141,0,0,0,16.506-3.2a4.282,4.282,0,0,0,.68-1.51A7.993,7.993,0,0,0,17.4-6.643Z" transform="translate(9.236 29.069)" fill="#ab6137"/>
</svg>
