<svg id="type_function_dark" xmlns="http://www.w3.org/2000/svg" width="40" height="40" viewBox="0 0 40 40">
  <path id="Icon_Base" d="M9,0H40a0,0,0,0,1,0,0V31a9,9,0,0,1-9,9H0a0,0,0,0,1,0,0V9A9,9,0,0,1,9,0Z" fill="none"/>
  <g id="bgr" fill="#1e2931" stroke="#47fbad" stroke-width="1.5">
    <path d="M9,0H40a0,0,0,0,1,0,0V31a9,9,0,0,1-9,9H0a0,0,0,0,1,0,0V9A9,9,0,0,1,9,0Z" stroke="none"/>
    <path d="M9,.75H38.5a.75.75,0,0,1,.75.75V31A8.25,8.25,0,0,1,31,39.25H1.5a.75.75,0,0,1-.75-.75V9A8.25,8.25,0,0,1,9,.75Z" fill="none"/>
  </g>
  <path id="Union_32" data-name="Union 32" d="M-2130.381-207.946H-2132l.274-2.16a4.1,4.1,0,0,0,1.345-.152.7.7,0,0,0,.444-.613l1.2-8.085h-1.3l.3-1.967h1.3a4.772,4.772,0,0,1,1.172-3.027c1.221-1.378,4.118-1,4.118-1l-.27,2.245a1.787,1.787,0,0,0-2.338,1.785h1.788l-.251,1.967H-2126l-1.3,8.85a2.907,2.907,0,0,1-1.164,1.616,3.55,3.55,0,0,1-1.847.546Zm13.245-1.42a9.1,9.1,0,0,0,2.547-6.179,7.9,7.9,0,0,0-.588-3.1h.936a6.411,6.411,0,0,1,.751,3.126,8.328,8.328,0,0,1-.629,3.269,9.627,9.627,0,0,1-1.948,2.88Zm-6.607,0a6.314,6.314,0,0,1-.752-3.116,8.328,8.328,0,0,1,.637-3.284,9.663,9.663,0,0,1,1.94-2.875h1.069a9.1,9.1,0,0,0-2.547,6.179,7.854,7.854,0,0,0,.588,3.1Zm5.436-1.683-.818-2.009-1.56,2.009h-1.381l2.429-2.954-1.181-2.789h1.252l.737,1.937,1.468-1.937h1.4l-2.358,2.851,1.268,2.893Z" transform="translate(2143 237)" fill="#76cfa8"/>
</svg>
