<svg id="type_event_dark" xmlns="http://www.w3.org/2000/svg" width="40" height="40" viewBox="0 0 40 40">
  <rect id="Icon_Base" width="40" height="40" fill="none"/>
  <g id="bgr" fill="#1e2931" stroke="#20bf7a" stroke-width="1.5">
    <path d="M9,0H40a0,0,0,0,1,0,0V31a9,9,0,0,1-9,9H0a0,0,0,0,1,0,0V9A9,9,0,0,1,9,0Z" stroke="none"/>
    <path d="M9,.75H38.5a.75.75,0,0,1,.75.75V31A8.25,8.25,0,0,1,31,39.25H1.5a.75.75,0,0,1-.75-.75V9A8.25,8.25,0,0,1,9,.75Z" fill="none"/>
  </g>
  <circle id="circle" cx="3.392" cy="3.392" r="3.392" transform="translate(16.655 22.552)" fill="#2dab74"/>
  <path id="arc" d="M9809.189,3449.924a1,1,0,0,1-.922-1.389,16.058,16.058,0,0,1,5.125-6.671,14.562,14.562,0,0,1,8.84-2.865h.067a14.782,14.782,0,0,1,13.823,9.447,1,1,0,0,1-1.883.677A12.748,12.748,0,0,0,9822.3,3441h-.06a12.969,12.969,0,0,0-12.129,8.313A1,1,0,0,1,9809.189,3449.924Z" transform="translate(-9802.189 -3428)" fill="#2dab74"/>
  <path id="arc-2" data-name="arc" d="M9809.188,3447.469a1,1,0,0,1-.92-1.392,11.928,11.928,0,0,1,3.841-4.949,10.99,10.99,0,0,1,6.627-2.128h.051a11.089,11.089,0,0,1,10.37,7.027,1,1,0,0,1-1.881.683,9.054,9.054,0,0,0-8.489-5.709h-.043a9.224,9.224,0,0,0-8.636,5.861A1,1,0,0,1,9809.188,3447.469Z" transform="translate(-9798.707 -3424.231)" fill="#2dab74"/>
  <path id="arc-3" data-name="arc" d="M9809.188,3445.174a1,1,0,0,1-.924-1.383,7.4,7.4,0,0,1,6.916-4.79h.034a7.347,7.347,0,0,1,6.861,4.775,1,1,0,0,1-1.887.666,5.315,5.315,0,0,0-4.975-3.441h-.025a5.454,5.454,0,0,0-5.077,3.556A1,1,0,0,1,9809.188,3445.174Z" transform="translate(-9795.165 -3420.463)" fill="#2dab74"/>
</svg>
