<svg id="type_texture_dark" xmlns="http://www.w3.org/2000/svg" width="40" height="40" viewBox="0 0 40 40">
  <rect id="Icon_Base" width="40" height="40" fill="none"/>
  <path id="light_tiles" d="M9,0H40a0,0,0,0,1,0,0V31a9,9,0,0,1-9,9H0a0,0,0,0,1,0,0V9A9,9,0,0,1,9,0Z" fill="#c7cfd3"/>
  <rect id="dark_tile" width="13" height="13" transform="translate(13.5 27)" fill="#797c98"/>
  <rect id="dark_tile-2" data-name="dark_tile" width="13" height="13" transform="translate(0.5 14)" fill="#797c98"/>
  <rect id="dark_tile-3" data-name="dark_tile" width="13" height="13" transform="translate(13.5 1)" fill="#797c98"/>
  <rect id="dark_tile-4" data-name="dark_tile" width="13" height="13" transform="translate(26.5 14)" fill="#797c98"/>
  <g id="border" fill="none" stroke="#5c66c2" stroke-width="1.5">
    <path d="M9,0H40a0,0,0,0,1,0,0V31a9,9,0,0,1-9,9H0a0,0,0,0,1,0,0V9A9,9,0,0,1,9,0Z" stroke="none"/>
    <path d="M9,.75H38.5a.75.75,0,0,1,.75.75V31A8.25,8.25,0,0,1,31,39.25H1.5a.75.75,0,0,1-.75-.75V9A8.25,8.25,0,0,1,9,.75Z" fill="none"/>
  </g>
</svg>
