<svg id="type_input_noBorder_dark" xmlns="http://www.w3.org/2000/svg" width="40" height="40" viewBox="0 0 40 40">
  <rect id="Icon_Base" width="40" height="40" fill="none"/>
  <path id="arrow" d="M.133,6.679.081,6.625l-.04-.08-.028-.08L0,6.4l.014-.08.028-.08.04-.067.052-.054L3.266,2.933l.067-.054.054-.04.08-.027.08-.012.067.012.08.027.066.04.054.054.054.054.04.066.026.08V4.8H5.879l.253-.014.253-.012.481-.054.466-.093.227-.054.213-.054.187-.08.2-.08.159-.08.161-.107.159-.12L8.8,3.92l.147-.133.12-.147.121-.173.106-.173.081-.187.092-.2.067-.227.054-.239.054-.254.026-.279.026-.294V.934L9.679.747,9.665.533V.481L9.651.453V.4L9.639.294V.227l.012-.08.04-.08.067-.04L9.784.014,9.824,0l.054.014.04.014.054.04L10,.121l.04.066.04.067.04.08.054.12.04.08V.561l.012.026.187.44.161.4.133.4.106.359.081.334.066.32.04.293.014.28L11,3.706,10.984,4l-.026.28-.04.267-.026.253-.067.227-.067.227-.08.227-.133.293-.159.294-.187.267-.213.253L9.731,6.8l-.267.213L9.158,7.2l-.32.161-.346.159-.372.12-.414.107-.427.08-.452.08-.481.054-.493.027L5.306,8H3.932V9.664l-.026.08-.04.067-.054.052-.054.054-.066.04-.08.027H3.467l-.08-.027-.054-.04-.067-.054Z" transform="translate(21.011 26.024) rotate(180)" fill="#51e134" fill-rule="evenodd"/>
  <path id="frame" d="M14.355,22.734H-1.5V17.158A1.214,1.214,0,0,1-.286,15.944,1.214,1.214,0,0,1,.927,17.158v3.149h11V4.3h-11V7.64A1.214,1.214,0,0,1-.286,8.854,1.214,1.214,0,0,1-1.5,7.64V1.875H14.355Z" transform="translate(13.995 7.696)" fill="#e55fce"/>
</svg>
