<svg id="type_ui_noBorder_dark" xmlns="http://www.w3.org/2000/svg" width="40" height="40" viewBox="0 0 40 40">
  <rect id="Icon_Base" width="40" height="40" fill="none"/>
  <path id="frame" d="M1.562,1.562v16.4h9.373V1.562H1.562M1.562,0h9.373A1.562,1.562,0,0,1,12.5,1.562v16.4a1.562,1.562,0,0,1-1.562,1.562H1.562A1.562,1.562,0,0,1,0,17.964V1.562A1.562,1.562,0,0,1,1.562,0Z" transform="translate(6 13.904)" fill="#9e8a58"/>
  <path id="X" d="M244.168,26.4l.047.054.023.062.015.061.008.07-.008.069-.015.069-.023.054-.047.054-.486.486-.062.047-.055.03-.063.016-.07.008-.071-.008-.062-.016-.063-.03-.055-.047-1.057-1.058-1.058,1.058-.047.047-.063.03-.07.016-.071.008-.062-.008-.07-.016-.063-.03-.047-.047-.494-.486-.039-.054-.031-.054-.023-.069-.008-.069.008-.07.023-.061.031-.062.039-.054,1.066-1.065-1.066-1.059-.039-.053-.031-.062-.023-.062-.008-.069.008-.069.023-.062.031-.054.039-.061.494-.487.047-.046.063-.031.07-.015.062-.008.071.008.07.015.063.031.047.046,1.058,1.066,1.057-1.066.055-.046.063-.031.062-.015.071-.008.07.008.063.015.055.031.062.046.486.487.047.061.023.054.015.062.008.069-.008.069-.015.062-.023.062-.047.053L243.1,25.334Z" transform="translate(-211.705 -18.194)" fill="#9e8a58" fill-rule="evenodd"/>
  <path id="line" d="M28.118.281H0V-.5H28.118Z" transform="translate(6 10.958)" fill="#9e8a58"/>
  <path id="line-2" data-name="line" d="M9.88.7H-.274A.976.976,0,0,1-1.25-.274.976.976,0,0,1-.274-1.25H9.88a.976.976,0,0,1,.976.976A.976.976,0,0,1,9.88.7Z" transform="translate(23.262 15.154)" fill="#9e8a58"/>
  <path id="line-3" data-name="line" d="M9.88.7H-.274A.976.976,0,0,1-1.25-.274.976.976,0,0,1-.274-1.25H9.88a.976.976,0,0,1,.976.976A.976.976,0,0,1,9.88.7Z" transform="translate(23.262 20.621)" fill="#9e8a58"/>
  <path id="line-4" data-name="line" d="M9.88.7H-.274A.976.976,0,0,1-1.25-.274.976.976,0,0,1-.274-1.25H9.88a.976.976,0,0,1,.976.976A.976.976,0,0,1,9.88.7Z" transform="translate(23.262 31.556)" fill="#9e8a58"/>
  <path id="line-5" data-name="line" d="M9.88.7H-.274A.976.976,0,0,1-1.25-.274.976.976,0,0,1-.274-1.25H9.88a.976.976,0,0,1,.976.976A.976.976,0,0,1,9.88.7Z" transform="translate(23.262 26.088)" fill="#9e8a58"/>
</svg>
