<svg id="type_scene_graph_dark" xmlns="http://www.w3.org/2000/svg" width="40" height="40" viewBox="0 0 40 40">
  <rect id="Icon_Base" width="40" height="40" fill="none"/>
  <g id="bgr" fill="#1e2931" stroke="#57747c" stroke-width="1.5">
    <path d="M9,0H40a0,0,0,0,1,0,0V31a9,9,0,0,1-9,9H0a0,0,0,0,1,0,0V9A9,9,0,0,1,9,0Z" stroke="none"/>
    <path d="M9,.75H38.5a.75.75,0,0,1,.75.75V31A8.25,8.25,0,0,1,31,39.25H1.5a.75.75,0,0,1-.75-.75V9A8.25,8.25,0,0,1,9,.75Z" fill="none"/>
  </g>
  <path id="icon" d="M26.471,13.971v3.967l-.033.266-.1.211-.1.214-.195.159-.221.159-.225.107-.291.08H20.03l-.258-.08-.225-.107-.225-.159-.192-.159-.1-.214-.1-.211-.033-.266V13.971l.033-.266.1-.211.1-.214.192-.159.225-.159.225-.107.258-.08.287-.027h1.44v-2.37H14.164v2.37h1.443l.254.027.291.08.225.107.225.159.192.159.129.214.063.211.033.266v3.967l-.033.266-.063.211-.129.214-.192.159-.225.159-.225.107-.291.08H10.606l-.287-.08-.225-.107-.225-.159-.159-.159-.129-.214-.1-.211-.033-.266V13.971l.033-.266.1-.211.129-.214.159-.159.225-.159.225-.107.287-.08.291-.027h1.41v-2.37H4.743v2.37h1.41l.32.027.225.08.254.107.195.159.192.159.129.214.1.211.03.266v3.967l-.03.266-.1.211-.129.214-.192.159-.195.159-.254.107-.225.08H1.153L.9,19.054l-.258-.107-.192-.159-.192-.159-.129-.214-.1-.211L0,17.937V13.971L.033,13.7l.1-.211.129-.214.192-.159.192-.159L.9,12.854l.254-.08.291-.027h1.41v-2.37l.03-.318.129-.294.162-.239L3.4,9.261l.32-.187.32-.159.32-.107.383-.027h7.564V6.386H10.9l-.291-.025-.287-.055L10.094,6.2,9.87,6.04l-.159-.159-.129-.214-.1-.239L9.453,5.19V1.223L9.486.957l.1-.187L9.711.532,9.87.373l.225-.159.225-.107.287-.08L10.9,0h4.71l.254.027.291.08.225.107L16.6.373l.192.159.129.239.063.187.033.266V5.19l-.033.239-.063.239-.129.214L16.6,6.04l-.225.159-.225.107-.291.055-.254.025H14.164V8.781h7.594l.353.027.32.107.353.159.287.187.258.266.192.239.063.294.033.318v2.37H25.06l.254.027.291.08.225.107.221.159.195.159.1.214.1.211.033.266Z" transform="translate(31.134 7) rotate(90)" fill="#57747c" fill-rule="evenodd"/>
</svg>
