<svg id="type_debug_dark" xmlns="http://www.w3.org/2000/svg" width="40" height="40" viewBox="0 0 40 40">
  <rect id="Icon_Base" width="40" height="40" fill="none"/>
  <g id="bgr" fill="#1e2931" stroke="#9f566c" stroke-width="1.5">
    <path d="M9,0H40a0,0,0,0,1,0,0V31a9,9,0,0,1-9,9H0a0,0,0,0,1,0,0V9A9,9,0,0,1,9,0Z" stroke="none"/>
    <path d="M9,.75H38.5a.75.75,0,0,1,.75.75V31A8.25,8.25,0,0,1,31,39.25H1.5a.75.75,0,0,1-.75-.75V9A8.25,8.25,0,0,1,9,.75Z" fill="none"/>
  </g>
  <path id="body_fill" d="M2.754,0H5.508V2.754A2.754,2.754,0,0,1,0,2.754V0Z" transform="translate(16.299 16.727)" fill="#6d3a4a"/>
  <path id="body" d="M.72.72V2.754a2.034,2.034,0,0,0,4.069,0V.72H.72M0,0H5.508V2.754A2.754,2.754,0,0,1,0,2.754Z" transform="translate(16.299 16.727)" fill="#aeaeae"/>
  <path id="head_fill" d="M2.051,0A2.051,2.051,0,0,1,4.1,2.051c0,1.133-.918.894-2.051.894S0,3.184,0,2.051A2.051,2.051,0,0,1,2.051,0Z" transform="translate(16.979 13.67)"/>
  <path id="head" d="M2.051.72A1.333,1.333,0,0,0,.72,2.051a.78.78,0,0,0,.014.164,1.582,1.582,0,0,0,.384.031c.121,0,.257,0,.4-.009.17-.006.345-.012.533-.012s.363.006.533.012c.143,0,.278.009.4.009a1.58,1.58,0,0,0,.384-.031.779.779,0,0,0,.014-.164A1.333,1.333,0,0,0,2.051.72m0-.72A2.051,2.051,0,0,1,4.1,2.051c0,1.133-.918.894-2.051.894S0,3.184,0,2.051A2.051,2.051,0,0,1,2.051,0Z" transform="translate(16.979 13.67)" fill="#aeaeae"/>
  <path id="antenna" d="M1.526,2.349a.36.36,0,0,1-.36-.359h0A1.955,1.955,0,0,0,.827.944,3.042,3.042,0,0,0-.273.194a.36.36,0,0,1-.2-.467.36.36,0,0,1,.467-.2A3.812,3.812,0,0,1,1.393.5,2.672,2.672,0,0,1,1.886,1.99.36.36,0,0,1,1.526,2.349Z" transform="translate(16.606 11.93)" fill="#aeaeae"/>
  <path id="antenna-2" data-name="antenna" d="M-.14,2.349A.359.359,0,0,1-.5,1.99,2.672,2.672,0,0,1-.008.5a3.812,3.812,0,0,1,1.4-.975.36.36,0,0,1,.467.2.36.36,0,0,1-.2.467,3.122,3.122,0,0,0-1.1.749A1.955,1.955,0,0,0,.22,1.99.36.36,0,0,1-.14,2.349Z" transform="translate(20.024 11.93)" fill="#aeaeae"/>
  <path id="leg" d="M.4,2.6a.36.36,0,0,1-.351-.283A2.118,2.118,0,0,1,.292.764,2.539,2.539,0,0,1,1.749.005a.36.36,0,0,1,.119.71,1.891,1.891,0,0,0-1,.479,1.434,1.434,0,0,0-.113.974A.36.36,0,0,1,.4,2.6Z" transform="translate(22.96 15.034) rotate(45)" fill="#aeaeae"/>
  <path id="leg-2" data-name="leg" d="M1.809,2.605a.362.362,0,0,1-.06-.005A2.539,2.539,0,0,1,.292,1.841,2.119,2.119,0,0,1,.053.283a.36.36,0,0,1,.7.154,1.426,1.426,0,0,0,.113.975,1.892,1.892,0,0,0,1,.479.36.36,0,0,1-.06.715Z" transform="translate(16.94 16.876) rotate(135)" fill="#aeaeae"/>
  <path id="leg-3" data-name="leg" d="M.511,3.033A.36.36,0,0,1,.17,2.788,2.892,2.892,0,0,1,.1,1.121,2.186,2.186,0,0,1,1.222.03.36.36,0,0,1,1.508.69a1.491,1.491,0,0,0-.731.68A2.21,2.21,0,0,0,.852,2.559a.36.36,0,0,1-.342.474Z" transform="translate(24.079 21.884) rotate(120)" fill="#aeaeae"/>
  <path id="leg-4" data-name="leg" d="M1.364,3.033A.358.358,0,0,1,1.222,3,2.186,2.186,0,0,1,.1,1.912,2.893,2.893,0,0,1,.17.245.36.36,0,1,1,.852.474,2.21,2.21,0,0,0,.777,1.663a1.492,1.492,0,0,0,.732.681.36.36,0,0,1-.144.69Z" transform="translate(16.607 20.368) rotate(60)" fill="#aeaeae"/>
  <path id="leg-5" data-name="leg" d="M.36,3.151A.359.359,0,0,1,0,2.8,3.114,3.114,0,0,1,.57.909,3.423,3.423,0,0,1,2.383,0,.36.36,0,1,1,2.5.715a2.676,2.676,0,0,0-1.382.662,2.419,2.419,0,0,0-.4,1.4.36.36,0,0,1-.348.371Z" transform="translate(23.657 17.409) rotate(60)" fill="#aeaeae"/>
  <path id="leg-6" data-name="leg" d="M2.442,3.152a.362.362,0,0,1-.058,0,3.423,3.423,0,0,1-1.813-.9A3.115,3.115,0,0,1,0,.347.36.36,0,0,1,.72.372a2.415,2.415,0,0,0,.4,1.4A2.677,2.677,0,0,0,2.5,2.437a.36.36,0,0,1-.058.715Z" transform="translate(17.131 18.985) rotate(120)" fill="#aeaeae"/>
  <path id="lens" d="M10.794,21.591A10.8,10.8,0,0,1,3.161,3.162,10.8,10.8,0,0,1,18.429,18.429,10.725,10.725,0,0,1,10.794,21.591Zm0-19.818A9.024,9.024,0,1,0,19.819,10.8,9.033,9.033,0,0,0,10.794,1.772Z" transform="translate(8 7)" fill="#9f566c"/>
  <path id="handle" d="M4.9,6.088a1.434,1.434,0,0,1-.994-.4L-1.555.48A1.439,1.439,0,0,1-1.6-1.555,1.439,1.439,0,0,1,.433-1.6L5.89,3.607A1.439,1.439,0,0,1,4.9,6.088Z" transform="translate(26.493 26.461)" fill="#9f566c"/>
</svg>
