<svg id="type_math_noBorder_dark" xmlns="http://www.w3.org/2000/svg" width="40" height="40" viewBox="0 0 40 40">
  <rect id="Icon_Base" width="40" height="40" fill="none"/>
  <path id="divider" d="M-.294,16.723a1.2,1.2,0,0,1-.849-.35,1.206,1.206,0,0,1-.007-1.706L14.523-1.143a1.206,1.206,0,0,1,1.706-.007A1.206,1.206,0,0,1,16.237.555L.563,16.366A1.2,1.2,0,0,1-.294,16.723Z" transform="translate(12.083 13.472)" fill="#c9c9c9"/>
  <path id="plus" d="M6.34,4.917,6.411,5l.035.1.023.094.012.107L6.469,5.4l-.023.106-.035.083-.071.083L5.6,6.422l-.094.072-.083.046-.1.024-.106.012-.107-.012L5.025,6.54l-.1-.046-.083-.072L3.248,4.8l-1.6,1.623-.071.072-.1.046-.106.024-.107.012-.094-.012L1.067,6.54l-.1-.046L.9,6.422.154,5.676.1,5.592.048,5.509.012,5.4,0,5.3l.012-.107L.048,5.1.1,5l.059-.083L1.766,3.283.154,1.659.1,1.577l-.048-.1-.035-.1L0,1.28l.012-.106.035-.1L.1,1,.154.9.9.154.972.083l.1-.048L1.174.012,1.268,0l.107.012.106.023.1.048.071.071,1.6,1.635L4.846.154,4.929.083l.1-.048L5.119.012,5.226,0l.106.012.1.023.083.048L5.6.154,6.34.9,6.411,1l.035.083.023.1.012.106-.012.106-.023.1-.035.1-.071.082L4.728,3.283Z" transform="translate(12.65 9) rotate(45)" fill="#c9c9c9" fill-rule="evenodd"/>
  <path id="minus" d="M2.7,3.993,1.371,5.344l-.059.06-.079.039-.088.02-.089.01-.078-.01-.088-.02L.809,5.4.75,5.344.128,4.723.079,4.654.04,4.585.01,4.5,0,4.408l.01-.089L.04,4.24l.04-.079.049-.069L1.47,2.732,2.7,1.489,4.033.128,4.1.069l.079-.04L4.26.01,4.349,0l.088.01.079.019.069.04.078.059L5.276.75l.059.078L5.365.9l.019.079.01.088-.01.088-.019.079-.029.079-.059.068L3.935,2.732Z" transform="translate(25.883 23.538) rotate(45)" fill="#c9c9c9" fill-rule="evenodd"/>
</svg>
