<svg id="type_rendering_noBorder_dark" xmlns="http://www.w3.org/2000/svg" width="40" height="40" viewBox="0 0 40 40">
  <rect id="Icon_Base" width="40" height="40" fill="none"/>
  <rect id="corner_void" width="9" height="9" transform="translate(31)" fill="#1f2123"/>
  <path id="bgr" d="M9,0H33l7,7V31a9,9,0,0,1-9,9H0V9A9,9,0,0,1,9,0Z" fill="#9c7eb9"/>
  <path id="k2" d="M54.9,14.909c1.451-1.762,3.635-2.066,5.226,0s16.529,21.61,16.529,21.61h-31v-10S53.452,16.671,54.9,14.909Z" transform="translate(-45.658 3.481)" fill="#7760a5"/>
  <path id="mount_everest" d="M26.023-9.671c2.146-3.294,4.306-2.291,5.479,0S39.346,5.388,39.346,5.388v6a8.972,8.972,0,0,1-8.049,9H6.346S23.877-6.376,26.023-9.671Z" transform="translate(0.654 19.612)" fill="#664f97"/>
  <circle id="celestial_object" cx="3.25" cy="3.25" r="3.25" transform="translate(6.488 6.97)" fill="#f8f3ea" opacity="0.66"/>
  <path id="corner_shadow" d="M1.258-1l7,7L1.806,7.065Z" transform="translate(31.742 1)" fill="#7760a5"/>
  <path id="corner" d="M.258,0l7,7h-7Z" transform="translate(32.742)" fill="#e1e1e1"/>
</svg>
