<svg xmlns="http://www.w3.org/2000/svg" width="30" height="30" viewBox="0 0 30 30">
  <g id="SkyBrowser" transform="translate(2731 -2267)">
    <rect id="BaseIcon" width="30" height="30" transform="translate(-2731 2267)" fill="none"/>
    <path id="Sky_Browser" d="M8.536,11.969l.2.236.166.236.17.27.135.267.066.27.066.3.035.27.035.336-.035.267-.035.3-.066.267-.066.305-.135.236L8.9,15.8l-.166.236-.2.236-.236.169-.236.2-.236.166-.27.135-.236.066-.3.069-.27.035-.336.031-.267-.031-.336-.035-.236-.069-.3-.066L5.04,16.81l-.27-.166-.2-.2-.236-.169L4.1,16.038,3.962,15.8,3.8,15.535,3.7,15.3l-.1-.305-.1-.267-.032-.3v-.6l.032-.27.1-.3.1-.27.1-.267.166-.27L4.1,12.2l.236-.236.236-.166.2-.2.27-.17.236-.1.3-.07.236-.1.336-.031h.6l.27.031.3.1.236.07.27.1.236.17.236.2Zm16.737,8.355v6.493a.377.377,0,0,1-.376.376H3.837a.377.377,0,0,1-.376-.376V24.324a.377.377,0,0,1,.11-.265l4.6-4.631a.377.377,0,0,1,.533,0l1.953,1.953a.376.376,0,0,0,.535,0l7.364-7.488a.377.377,0,0,1,.537,0l6.076,6.17A.378.378,0,0,1,25.273,20.323Z" transform="translate(-2730.46 2262.706)" fill="#A8A8A8" fill-rule="evenodd"/>
  </g>
</svg>
